<svg xmlns="http://www.w3.org/2000/svg" viewBox="0 0 111.7 123.47"><g id="Calque_2" data-name="Calque 2"><g id="desktop"><path d="M101.52,100.5c1.24,8.78-1.51,11.64-11.92,12.38-2.18,9.59-3.44,10.57-13.55,10.57-13.69,0-27.38,0-41.07,0-6.2,0-11.74-1.85-15.82-6.4-3.33-3.71-6.44-6.84-12.17-4.81l-.27-4.68c2-.1,3.77-.11,5.51-.31,3.47-.39,5.79.63,7.9,3.8,3.51,5.26,8.74,7.83,15.36,7.74,14.24-.19,28.49,0,42.74-.08,1.37,0,3,.11,4-.6s1.46-2.44,2.15-3.72c-1.09-.57-2.17-1.62-3.27-1.64-7.25-.15-14.51-.08-22.1-.08v-4.56H71.61c6.85,0,13.69,0,20.54,0,2.64,0,4.89-.91,4.93-3.92,0-3.26-2.25-4.1-5.12-4.09-9.64,0-19.27,0-28.91,0H58.68c-1.29-3.66,0-4.64,3.18-4.61,11.59.11,23.19,0,34.78,0,1.39,0,3.07.33,4.1-.32,1.45-.91,3.39-2.64,3.31-3.92s-2.2-2.67-3.66-3.67c-.68-.45-1.91-.09-2.88-.09H55.58V82.7H80c5,0,10-.08,15.08,0,2.9.06,5.29-.78,5.2-4s-2.51-4-5.36-4q-26.4,0-52.8,0h-5l-.25-.63c1-.5,2-1.08,3-1.49q10.91-4.28,21.82-8.51a13.61,13.61,0,0,0,3.78-1.73,19.65,19.65,0,0,0,2.76-3.62c-1.43-.57-3-1.85-4.25-1.58-11.45,2.44-22.94,4.82-34.2,8-3,.84-5.82,4-7.64,6.76-2.58,3.94-5.7,5.21-10.08,4.65a40.67,40.67,0,0,0-4.94,0c-1-3.35-.24-5,3.12-4.53,4.25.65,7-1.14,9.37-4.56a19.33,19.33,0,0,1,12.3-8c10.23-2.18,20.37-4.74,30.6-6.91,5.38-1.14,9.12.78,10.28,4.71s-.89,7.44-5.84,9.81c-1.61.77-3.3,1.4-6,2.52,1.94.23,2.9.45,3.87.45,9.91,0,19.83,0,29.75,0,7.66,0,11,3.88,10,11.35a3.9,3.9,0,0,0,.37,2.6C111.08,92.12,110.2,96.39,101.52,100.5Z"/><path d="M53.75,1.59h2.66c3.19,5.05,6.41,9.57,9,14.42,2,3.72,4.06,7.73,4.62,11.82.85,6.35-3.44,12.06-9.36,14.28A15.13,15.13,0,0,1,44,37.77a14.87,14.87,0,0,1-1.13-17.53,34.15,34.15,0,0,1,2.24-3c1.89-2.4,4.13-4.61,5.61-7.24S52.7,4.57,53.75,1.59Zm2.61,9.18C53,15,50,18.42,47.29,22.09c-3.27,4.44-2.83,9.54.86,13.28a10.28,10.28,0,0,0,13,1.16,9.69,9.69,0,0,0,3.27-12.86C62.11,19.3,59.19,15.25,56.36,10.77Z"/><path d="M25,42.05a7.74,7.74,0,0,1-7.8,7.6A7.85,7.85,0,1,1,17.23,34,7.72,7.72,0,0,1,25,42.05ZM21.89,42c-2.31-1.57-3.49-3-4.68-3s-3,1.8-2.9,2.45c.27,1.29,1.57,3,2.72,3.26S19.47,43.42,21.89,42Z"/><path d="M111.7,35.76a7.78,7.78,0,0,1-7.8,8,7.84,7.84,0,0,1,0-15.67A7.91,7.91,0,0,1,111.7,35.76Zm-8-4.36c-1.37,2.33-2.74,3.62-2.65,4.8.07,1,2,2.8,2.77,2.64,1.25-.28,2.95-1.77,3.09-2.92S105.33,33.6,103.67,31.4Z"/><path d="M88.66,7.63a7.88,7.88,0,0,1-7.5,7.93A7.79,7.79,0,1,1,80.81,0,8,8,0,0,1,88.66,7.63Zm-8.14-4.5C79.18,5.51,77.74,6.92,77.94,8s2,2.44,3.23,2.59c.74.1,2.48-1.91,2.44-2.91C83.55,6.49,82.1,5.33,80.52,3.13Z"/><path d="M87.68,28.91a7.79,7.79,0,1,1-8.11-7.65A7.72,7.72,0,0,1,87.68,28.91Zm-8,4.81c1.59-2.24,3-3.4,3.1-4.63,0-1-1.7-2.95-2.47-2.86-1.22.14-3,1.49-3.22,2.57S78.3,31.32,79.65,33.72Z"/><path d="M90.17,40.5A7.66,7.66,0,1,1,90,55.82a7.66,7.66,0,1,1,.16-15.32Zm-.33,12.3c1.6-2.2,3.09-3.37,3.13-4.58,0-1-1.74-3.08-2.48-3-1.26.18-3,1.55-3.26,2.69S88.49,50.43,89.84,52.8Z"/><path d="M7.66,31.5A7.52,7.52,0,0,1,0,23.89a7.57,7.57,0,0,1,8-7.71,7.56,7.56,0,0,1,7.68,7.62A7.53,7.53,0,0,1,7.66,31.5Zm0-3c1.55-2.23,3-3.42,3-4.63,0-1-1.77-3.05-2.47-2.93-1.25.22-3,1.57-3.22,2.7S6.26,26.14,7.64,28.5Z"/><path d="M30.56,8.64a7.89,7.89,0,0,1-7.43,8A7.66,7.66,0,0,1,14.94,9.1a7.63,7.63,0,0,1,7.33-8A7.8,7.8,0,0,1,30.56,8.64Zm-3.21-.1c-2.4-1.3-3.73-2.6-4.93-2.49-1,.1-2.79,2.09-2.6,2.8.33,1.25,1.86,2.91,3,3S25.14,10.25,27.35,8.54Z"/><path d="M36.69,27a7.65,7.65,0,0,1-7.95,7.8,7.77,7.77,0,1,1,.37-15.54A7.6,7.6,0,0,1,36.69,27Zm-3.12-.15c-2.36-1.46-3.78-3-4.81-2.8s-2.47,2-2.73,3.32c-.13.68,1.88,2.51,2.91,2.5C30.14,29.89,31.32,28.44,33.57,26.88Z"/><path d="M97.07,26.47a7.42,7.42,0,0,1-7.63-7.59A7.77,7.77,0,0,1,105,18.73,7.48,7.48,0,0,1,97.07,26.47ZM92.65,19c2.28,1.42,3.58,2.85,4.78,2.77,1-.07,2.86-2,2.7-2.84a4.52,4.52,0,0,0-3-3C96.1,15.74,94.81,17.41,92.65,19Z"/></g></g></svg>