<svg xmlns="http://www.w3.org/2000/svg" viewBox="0 0 132.28 90.72"><defs><style>.cls-1{fill:#f28c0f;}.cls-2{fill:#bfbcba;}.cls-3{fill:none;stroke:#989898;stroke-miterlimit:10;opacity:0.5;}</style></defs><g id="Calque_2" data-name="Calque 2"><g id="Calque_4" data-name="Calque 4"><path class="cls-1" d="M0,7.75s12.64,9.58,15.63,8.61C18.78,15.34,28.23,0,28.23,0s-7.94,15.55-6.78,20.1c.89,3.53,16.39,11.6,16.39,11.6s-13.52-4.82-17.88-3c-4,1.64-11.06,14-11.06,14s5-15,3.85-19.39C11.59,18.73,0,7.75,0,7.75Z"/><path class="cls-2" d="M41.63,48.36a2.77,2.77,0,0,1,1,.9c.33.59,1.74-1.29,2.84-.33.55.48.32,1.46.14,2.07-.9,3-4.7,2.84-7,.79-1.54-1.38-2.77-3.08-4.62-4.17s-3.37-.87-3.72,1.34c-.59,3.83-3.23,9-2.76,11.22.19.85.61,2,.1,2.81-.13.18-2.52.48-3.17-.83s.12-4.39.82-6.72c.13-3.28,1.62-6.88,2.07-10.7.19-1.61,1.66-2.79,3.13-3.52,1.19-.58,1.92.68,2.46,1.32,1.84,2.2,4.57,3,6.76,4.58Z"/><path class="cls-2" d="M31.09,36.63a5.52,5.52,0,0,1-1.83,2.78c-.59.54-1,.6-1.73,0-2.89-2.48-3.36-6-1.09-9.43a1.08,1.08,0,0,0,.11-1.08,8.4,8.4,0,0,1-.38-1.1c-.28-1.28-.26-2.55,1-3.25,1.07-.58,1.7.29,2.26,1.05A2,2,0,0,1,29,28.75c-1.08.73-.7,1.19.07,1.92A6.27,6.27,0,0,1,31.09,36.63Z"/><path class="cls-2" d="M41,25.68c-.27,1.41-5.69,5.78-7,5.61-.94-.12-.6-.81-.38-1.22a15.53,15.53,0,0,1,5.61-5.66,1.15,1.15,0,0,1,1.3.07A1.06,1.06,0,0,1,41,25.68Z"/><path class="cls-2" d="M22.32,32.67c-.42,1-1.16.83-1.72.39-1.68-1.34-3.3-2.76-4.9-4.19a1.12,1.12,0,0,1-.35-1.46c.38-.62,1-.38,1.45-.23,2.57.76,3.7,3.12,5.38,4.86C22.32,32.18,22.28,32.47,22.32,32.67Z"/><path class="cls-3" d="M45.69,54.85c-2.34,3.75-16.92-3.34-30.52-15.1"/><path class="cls-3" d="M45.82,56.71c-1,2.08-4.51.68-7.36-.23"/><path class="cls-2" d="M81.78,59a.69.69,0,0,0,1.28,0,1.66,1.66,0,0,1,.33-.6c.8-.83,1.76-1.46,2.87-.81s.89,1.62.45,2.65c-1.34,3.08-3,3.65-5.92,2-2-1.15-4.28-2.21-6-3.28a46.48,46.48,0,0,1-4.65-3.62c-.91-.69-1.39-.76-1.79.49-1.13,3.52-2.5,7-3.45,10.53-.48,1.81-2.51,3.81,0,5.75a15,15,0,0,1,2,1.63c1.09,1.41-1.22,3.08-3.52,2.82a.88.88,0,0,1-.23-.07,12.21,12.21,0,0,1-2.5-1.93c-1.8-1.88-1.32-5.64.34-9.58,1.6-3.76,2-8.22,3.26-12.29,1.13-3.65,3.89-5,7.35-2.48,2.66,1.95,5.11,4.11,7.72,6.1A6.84,6.84,0,0,1,81.78,59Z"/><path class="cls-2" d="M69.36,42.29c-.4,2.45-2.35,3.5-4.82,2.46a6.47,6.47,0,0,1-3.69-3,30.54,30.54,0,0,0-1.76-2.71c-1.12-1.79-2.5-3.45-1.5-5.89.73-1.76-.14-3.2-1.64-4.3a4.3,4.3,0,0,1-2-3.25c-.06-1-.09-1.89.91-2.4a2.5,2.5,0,0,1,2.62.32c1.51,1,1.82,2.61,2.21,4.18.2.85.25,1.7,1.49,1.61,1.53-.11,2.23,1,3.08,2A36.58,36.58,0,0,1,69,39.43,3.89,3.89,0,0,1,69.36,42.29Z"/><path class="cls-2" d="M42.16,32.15a4.87,4.87,0,0,0,3.09,2,34.86,34.86,0,0,1,4.59,1.25c1.55.5,2.62,1.29,3.19,1.14s.72-.3.89-1.08-.54-1.58-1-2-1-.35-1.69-.67c-1.31-.59-3.37-1-4.62-1.65s-1.75-1.09-3.12-1.06c-.69,0-1.36,0-1.68.74A1.17,1.17,0,0,0,42.16,32.15Z"/><path class="cls-2" d="M78,20.91c-.24,2-6,8.66-7.77,9.07-.66.16-1.42.33-1.94-.32a1.63,1.63,0,0,1-.14-2.15c2.52-2.57,4.12-6.05,7.54-7.73.65-.31,1.27-.65,2-.15A1.14,1.14,0,0,1,78,20.91Z"/><path class="cls-3" d="M87,63.39c-2.29,4.35-18.17,1.52-34.32-16.12"/><path class="cls-3" d="M87,66.05c-1.5,1.79-5.13,1.31-8.66.11"/><path class="cls-2" d="M101.35,83.67a10.36,10.36,0,0,0-.22,4.08c-.17,1.28,2,2.48,3.69,2.92a1.88,1.88,0,0,0,2.29-1.61c0-.31.09-.65.13-1,.1-.84-1.38-1.16-2.18-1.47-.62-.24-.1-2.52,0-2.87a9.89,9.89,0,0,1,.74-2.75c.6-1.17.4-2.52.92-3.59a15.65,15.65,0,0,0,1-2.48c.08-.24.61-1.16.72-1.39a11.31,11.31,0,0,0,.82-3.17l.69-5.24c.17-1.3,1.16-1.58,2.18-1C114,65.33,116,66,117.9,67c1.23.67,3.22,1,4.27,1.8,1.92,1.53,2.86,3.61,5.47,4,1.45.24,2.59.06,2.88-1.47.2-1.06.47-2.07.77-3.1a3,3,0,0,0-.83-3.21c-.9-.71-1.7,0-2.26.89-.43.67-1.7,1.32-2.09.92a18.2,18.2,0,0,0-3-2.44,45.83,45.83,0,0,1-5.29-3.89,6,6,0,0,0-3.14-1.61,26.92,26.92,0,0,0-3.7,0c-1.48,0-2.06-.66-1.6-2s.15-2.78-.15-4.29a58.59,58.59,0,0,0-4.78-13.21A6.23,6.23,0,0,0,98.28,36a1.92,1.92,0,0,0-1.47,1.27c-1.68,3.34-2.49,6.58-.35,10,1.27,2,2.15,4.18,3.94,5.85a17.64,17.64,0,0,0,4.14,3.47,12.23,12.23,0,0,1,1.54,1.36c1.2.9,1,.9.48,1.73-1.92,3.31-2,2.91-2.93,6.68a33.49,33.49,0,0,0,0,5.37,5.55,5.55,0,0,1-.35,2.1l-1.12,5.82Z"/><path class="cls-2" d="M78.51,29.83c.61-.37,2.76.32,2.82.37.76.51,1.56.61,3.43,3.46a45.39,45.39,0,0,0,5.81,6.8c.58.59,1.53,1,1.08,2.06s-1.59.89-2.44.69c-2.35-.55-3.62-2.71-5.5-4-.78-.54-2.14-2.15-3.17-3a6.44,6.44,0,0,1-1.11-1c-.05-.09-.7-.92-1.05-1.37a5.9,5.9,0,0,1-.86-2.39,1.15,1.15,0,0,1,0-.37A1.87,1.87,0,0,1,78.51,29.83Z"/><path class="cls-2" d="M111.87,22.33a43.23,43.23,0,0,1-.93,8.92,6.94,6.94,0,0,1-2.68,4.19,1.66,1.66,0,0,1-1.76.2,1.14,1.14,0,0,1-.41-1.64c2.74-4.39,1.38-9.56,2.77-14.19.31-1,.62-2.07,1-3.08a1.26,1.26,0,0,1,1.34-.73c.69,0,.79.57,1,1.08C113,18.88,112,20.58,111.87,22.33Z"/><path class="cls-2" d="M97.72,30.86a2.21,2.21,0,0,1-3.56,1.38c-1.93-1.48-2.75-3.71-3.36-5.92-.38-1.37,1.35-2.45,2.83-1.94C95.83,25.14,98,28.5,97.72,30.86Z"/><path class="cls-3" d="M131.86,73.49c-3.36,4.93-24.73-3.8-47.78-19.52"/><path class="cls-3" d="M131.76,76.13c-.74,2.91-7.45.49-11.71-.81"/></g></g></svg>